<svg width="24" height="24" viewBox="0 0 24 24" fill="none" xmlns="http://www.w3.org/2000/svg">
<path fill-rule="evenodd" clip-rule="evenodd" d="M21.5448 3.28425C21.7611 3.28425 21.9294 3.44723 21.9294 3.63349L21.9054 8.14838C21.9054 8.33444 21.737 8.49742 21.5448 8.49742H12.3847C12.1684 8.49742 12.0001 8.33444 12.0001 8.14838V3.63349C12.0001 3.44723 12.1684 3.28425 12.3847 3.28425H21.5448ZM12.3847 2.3999C11.6876 2.3999 11.1105 2.95849 11.1105 3.63349V8.14838C11.1105 8.82318 11.6876 9.38177 12.3847 9.38177H16.5199V10.2661H2.98427V11.1272H21.9294V21.5999H22.819V10.2661H17.4094V9.38177H21.5448C22.2419 9.38177 22.819 8.82318 22.819 8.14838V3.63349C22.819 2.95849 22.2419 2.3999 21.5448 2.3999H12.3847Z" fill="currentColor"/>
<path fill-rule="evenodd" clip-rule="evenodd" d="M1.18115 10.2428V21.5999H2.09474V14.5947H21.0159V13.7337H2.09474V10.2428H1.18115Z" fill="currentColor"/>
</svg>
