<svg width="24" height="24" viewBox="0 0 24 24" fill="none" xmlns="http://www.w3.org/2000/svg">
<path fill-rule="evenodd" clip-rule="evenodd" d="M12.0117 4.07455L13.447 6.94536L16.6168 7.40391L14.3242 9.63667L14.8626 12.8065L12.0117 11.3112L9.18077 12.8065L9.71909 9.63667L7.42649 7.40391L10.5963 6.94536L12.0117 4.07455ZM12.0117 2.3999L10.0979 6.26743L5.83162 6.88553L8.92165 9.89578L8.26382 13.7234L8.20399 14.1421L12.0316 12.1285L15.8593 14.1421L15.1416 9.89578L18.2117 6.88553L13.9255 6.26743L12.0117 2.3999Z" fill="currentColor"/>
<path fill-rule="evenodd" clip-rule="evenodd" d="M3.7383 15.2585C4.5158 15.5375 5.31323 15.717 6.13062 15.8167C8.06438 16.0958 10.0181 16.2354 11.9718 16.2354C12.1006 16.2366 12.2294 16.2372 12.3584 16.2372C14.2828 16.2372 16.2075 16.0983 18.1319 15.8367C18.8296 15.737 19.5273 15.5575 20.2053 15.2984V19.8237C19.8464 20.2424 16.7764 20.8605 11.9917 20.8605C7.18716 20.8605 4.11708 20.2424 3.75825 19.8237L3.7383 15.2585ZM7.66566 12.8662C3.35953 13.5042 2.98076 14.0025 3.0007 14.5009V19.8636C3.0007 20.3022 3.33959 20.8006 5.83162 21.1994C7.73746 21.461 9.66075 21.5999 11.5852 21.5999C11.7142 21.5999 11.843 21.5992 11.9718 21.5981C12.1006 21.5992 12.2294 21.5999 12.3584 21.5999C14.2828 21.5999 16.2075 21.461 18.1319 21.1994C20.6239 20.8006 20.9628 20.3022 20.9628 19.8636V14.481C20.9628 13.9029 19.8066 13.4244 17.5339 13.0656C17.1751 13.0058 16.7764 12.9659 16.4175 12.9459L16.557 13.7035C16.836 13.7234 17.1352 13.7434 17.4142 13.7833C18.5506 13.9628 19.7268 14.2817 20.1255 14.5009C19.5076 14.9395 16.4971 15.4778 11.9718 15.4778C8.08432 15.4778 4.63546 14.8996 3.85797 14.481C4.13702 14.3216 4.99429 14.0224 7.52605 13.6237L7.66566 12.8662Z" fill="currentColor"/>
</svg>
