<svg width="24" height="24" viewBox="0 0 24 24" fill="none" xmlns="http://www.w3.org/2000/svg">
<path fill-rule="evenodd" clip-rule="evenodd" d="M17.0392 6.98736C17.476 6.98736 17.9216 7.14992 18.2854 7.51429C19.3912 8.64365 18.6044 10.5616 17.0307 10.5616C16.0523 10.5403 15.2442 9.75169 15.2442 8.77156C15.2442 7.70349 16.1223 6.98736 17.0392 6.98736ZM16.9993 6.18205C16.3668 6.18205 15.7234 6.4162 15.2016 6.93886C13.5853 8.57969 14.7337 11.3501 17.0307 11.3501C18.4342 11.3501 19.604 10.1992 19.604 8.77156C19.604 7.21298 18.3262 6.18205 16.9993 6.18205Z" fill="currentColor"/>
<path fill-rule="evenodd" clip-rule="evenodd" d="M10.7781 10.7746L10.0125 10.9876L10.1402 11.3927C10.5866 12.9056 11.0545 14.7594 11.5011 16.5708C11.9265 18.3182 12.3518 20.1081 12.7984 21.5999H13.6491V16.2939C13.6491 14.3972 15.1803 12.863 17.0732 12.863C18.9446 12.863 20.4759 14.3972 20.497 16.2939V21.5786H21.2841V16.2939C21.2841 13.9497 19.3912 12.0532 17.0732 12.0532C14.7337 12.0532 12.841 13.9497 12.841 16.2939V18.6805C12.6495 17.9347 12.4582 17.1462 12.2667 16.3789C11.8201 14.5464 11.3524 12.6711 10.8845 11.1582L10.7781 10.7746Z" fill="currentColor"/>
<path fill-rule="evenodd" clip-rule="evenodd" d="M4.16407 2.3999C3.20699 2.3999 2.44141 3.16702 2.44141 4.12601V15.0579C2.44141 15.9954 3.20699 16.7627 4.16407 16.7627H10.693L10.4804 15.9741H4.16407C3.65362 15.9741 3.22827 15.5479 3.22827 15.0579V4.12601C3.22827 3.61454 3.65362 3.20966 4.16407 3.20966H19.8379C20.3483 3.20966 20.7524 3.61454 20.7524 4.12601V12.7564H21.5605V4.12601C21.5605 3.16702 20.7949 2.3999 19.8379 2.3999H4.16407Z" fill="currentColor"/>
</svg>
