<svg width="112" height="24" viewBox="0 0 112 24" fill="none" xmlns="http://www.w3.org/2000/svg">
<path d="M0.313799 10.2572C-0.079535 10.4216 -0.079535 11.1534 0.18308 11.4159L0.879068 11.5885C1.5256 11.7528 1.90244 11.884 2.42649 12.8381C4.28482 16.2655 6.15139 20.0464 7.96143 23.7611C8.19107 23.9585 8.46075 23.9999 8.84584 23.9999C9.23093 23.9999 9.48412 23.9585 9.72201 23.7611C10.5817 22.126 12.8651 17.7363 13.8485 16.0267C14.9943 18.1394 16.9598 21.9853 17.7618 23.7611C17.9832 23.9585 18.2529 23.9999 18.6297 23.9999C19.0066 23.9999 19.2845 23.9585 19.4976 23.7611C21.0945 20.2769 22.8374 16.6592 24.5815 13.2815C25.1951 12.0732 25.4577 11.7445 26.7095 11.514L27.2418 11.4159C27.5445 11.112 27.4632 10.3885 27.1276 10.2572C26.2927 10.3235 25.3105 10.3637 24.2047 10.3637C23.2555 10.3637 22.3546 10.3223 21.0934 10.2572C20.7165 10.3968 20.7165 11.1865 20.9461 11.4159L21.5844 11.5388C22.2392 11.6701 22.5336 11.8427 22.5336 12.007C22.5336 12.2375 22.4194 12.6974 22.1815 13.2803C21.5844 14.809 20.9862 16.4204 20.0688 18.3262C19.2339 16.7396 18.1775 14.6115 17.4898 13.0249C17.2684 12.4657 17.1871 12.2683 17.1871 12.0058C17.1871 11.8415 17.7112 11.6689 18.5956 11.5045L19.1608 11.4135C19.4305 11.2823 19.4635 10.2963 19.0466 10.2549C16.623 10.3211 14.7235 10.3613 12.3328 10.3613H4.66873C3.07184 10.3613 1.86005 10.3199 0.313799 10.2549V10.2572ZM9.48295 11.5885V11.5968C9.57127 11.5944 9.65959 11.5932 9.74792 11.5932C10.272 11.5932 10.7901 11.6346 11.3083 11.7114C12.0702 11.8427 12.7085 12.9114 12.7085 13.4293C12.725 13.7579 12.6838 14.0949 12.5943 14.4153C12.4059 15.0726 11.1211 17.4407 10.5805 18.3357C9.94223 17.2835 8.41953 14.3171 7.89548 13.1573C7.66702 12.6726 7.55161 12.2695 7.55161 12.0803C7.55161 11.7103 8.27233 11.5873 9.48413 11.5873L9.48295 11.5885Z" fill="#2B2B33"/>
<path d="M32.8486 9.91211C28.1168 9.91211 24.6616 13.1338 24.6616 17.2847C24.6616 20.8764 27.4291 24 32.546 24C34.8223 24 37.6393 23.0471 39.1855 20.2522C39.1855 19.7379 38.6992 19.4743 38.3023 19.4743C38.2681 19.4743 38.2352 19.4766 38.2022 19.4802C37.1788 21.0089 35.7303 21.198 34.6657 21.198C31.1457 21.198 29.3192 18.798 29.3192 16.3318C29.3192 15.8057 29.4016 15.7312 30.2696 15.7312H37.5474C38.7345 15.7312 38.9229 15.2796 38.9229 14.6554C38.9229 12.1159 36.7937 9.91329 32.8486 9.91329V9.91211ZM32.5872 11.4242C33.872 11.4242 34.6009 12.1478 34.6009 13.2331C34.6009 13.57 34.5279 13.8904 34.3395 13.9897C33.9132 14.2203 33.3079 14.2853 32.7756 14.2853H31.3766C30.1565 14.2853 29.6325 14.2605 29.6325 13.7923C29.6325 12.7318 30.9915 11.4254 32.5884 11.4254L32.5872 11.4242Z" fill="#2B2B33"/>
<path d="M39.4882 10.2572C39.1113 10.4216 39.1113 11.1534 39.3739 11.4159L40.0534 11.5885C40.7082 11.7528 41.0768 11.884 41.6091 12.8381C43.4674 16.2655 45.334 20.0464 47.1511 23.7611C47.3807 23.9585 47.6422 23.9999 48.0273 23.9999C48.4124 23.9999 48.6656 23.9585 48.8952 23.7611C49.7714 22.126 52.0395 17.7363 53.0299 16.0267C54.1675 18.1394 56.133 21.9853 56.935 23.7611C57.1646 23.9585 57.4261 23.9999 57.8029 23.9999C58.1798 23.9999 58.4577 23.9585 58.6791 23.7611C60.276 20.2769 62.0189 16.6592 63.763 13.2815C64.3695 12.0732 64.6391 11.7445 65.8839 11.514L66.4245 11.4159C66.7189 11.112 66.6459 10.3885 66.3102 10.2572C65.467 10.3235 64.4849 10.3637 63.3873 10.3637C62.4299 10.3637 61.529 10.3223 60.276 10.2572C59.8909 10.3968 59.8909 11.1865 60.1288 11.4159L60.767 11.5388C61.4136 11.6701 61.7162 11.8427 61.7162 12.007C61.7162 12.2375 61.602 12.6974 61.3724 13.2803C60.7588 14.809 60.1606 16.4204 59.2514 18.3262C58.4165 16.7396 57.3519 14.6115 56.6724 13.0249C56.4427 12.4657 56.3615 12.2683 56.3615 12.0058C56.3615 11.8415 56.8938 11.6689 57.7699 11.5045L58.3352 11.4135C58.5966 11.2823 58.6379 10.2963 58.221 10.2549C55.7974 10.3211 53.8978 10.3613 51.5072 10.3613H43.8443C42.2639 10.3613 41.0438 10.3199 39.4893 10.2549L39.4882 10.2572ZM48.6656 11.5885V11.5968C48.7527 11.5944 48.841 11.5932 48.9282 11.5932C49.4487 11.5932 49.9727 11.6346 50.4909 11.7114C51.2528 11.8427 51.8911 12.9114 51.8911 13.4293C51.8994 13.7579 51.8664 14.0949 51.7851 14.4153C51.5885 15.0726 50.2954 17.4407 49.7714 18.3357C49.1166 17.2835 47.6092 14.3171 47.0781 13.1573C46.8485 12.6726 46.7342 12.2695 46.7342 12.0803C46.7342 11.7103 47.4467 11.5873 48.6667 11.5873L48.6656 11.5885Z" fill="#2B2B33"/>
<path d="M72.7519 9.90381C68.2816 9.90381 63.9914 12.5095 64.0244 17.2197C64.0738 21.7572 68.0119 24 72.5305 24C77.0491 24 81.2498 21.7312 81.2498 16.9146C81.2498 12.0981 77.2305 9.90381 72.7519 9.90381ZM72.5305 11.4242C74.6832 11.4242 75.7478 14.186 75.789 17.3828C75.822 20.3491 75.1013 22.4867 72.9403 22.4867C70.7793 22.4867 69.4851 19.9472 69.4851 16.4949C69.4851 13.0427 70.8606 11.4242 72.5305 11.4242Z" fill="#2B2B33"/>
<path d="M86.4009 9.44161C86.3844 9.44161 86.3679 9.44161 86.3514 9.44279C85.1726 10.1167 82.5524 10.9963 80.8083 11.4325C80.5386 11.6217 80.5386 12.2211 80.8083 12.4186L81.3488 12.7141C82.0613 13.109 82.0613 13.5027 82.0613 14.8186V19.7912C82.0613 22.0919 81.9141 22.3886 80.654 22.495L79.9333 22.5529C79.6306 22.7504 79.6306 23.5153 79.9745 23.7116C81.2357 23.6371 82.8974 23.6052 84.4531 23.6052C86.2301 23.6052 87.7528 23.6383 89.5782 23.7116C89.9221 23.5141 89.9221 22.7504 89.6112 22.5529L88.3994 22.4631C87.1475 22.3638 86.9909 22.093 86.9909 19.7923V14.7122C86.9909 13.4625 87.1876 12.739 87.7199 12.739C87.9495 12.739 88.2934 12.7721 89.1601 13.3963C89.643 13.7912 90.1022 13.9957 90.6334 13.9957C91.8452 13.9957 93.0652 13.3632 93.0652 11.8511C93.0652 10.6097 92.0006 9.91097 90.9702 9.91097C89.3815 9.91097 88.2922 10.9963 87.2606 11.5555C86.9497 11.4893 86.8755 11.3912 86.8755 11.1606C86.8755 10.8651 86.9568 10.4123 87.0227 9.74664C86.8696 9.55393 86.6435 9.44043 86.4009 9.44043V9.44161Z" fill="#2B2B33"/>
<path d="M97.8947 0C95.9622 0.723546 93.6458 1.51212 92.0984 1.84079C91.8287 2.0465 91.8287 2.63763 92.0984 2.8268L92.7366 3.16374C93.4986 3.55862 93.4986 3.92039 93.4986 5.24335V19.7178C93.4986 22.0197 93.3431 22.2904 91.9759 22.4217L91.2552 22.4879C90.9525 22.6853 90.9525 23.442 91.2964 23.6382C92.6224 23.5732 94.1781 23.5318 95.9222 23.5318C97.6663 23.5318 99.262 23.5732 100.482 23.6382C100.818 23.4408 100.818 22.6853 100.515 22.4879L99.9168 22.4217C98.5825 22.2904 98.427 22.0197 98.427 19.7178V17.8108C98.427 17.1866 98.6155 17.0223 98.8769 17.0223C98.8851 17.0223 98.8934 17.0223 98.9016 17.0223C99.2773 17.0223 99.6259 17.202 99.8343 17.5082L102.519 21.0751C102.83 21.4617 103.166 21.9878 103.166 22.1273C103.166 22.2668 102.944 22.3164 102.561 22.3897L102.069 22.4879C101.759 22.7834 101.841 23.4739 102.217 23.6382C103.281 23.5732 104.64 23.5318 106.884 23.5318C109.127 23.5318 110.486 23.5732 111.665 23.6382C112.042 23.507 112.115 22.7172 111.812 22.4879L111.247 22.3897C110.265 22.2254 109.544 22.0528 109.012 21.6331C108.053 20.8764 104.722 16.3897 104.042 15.3458C103.854 15.0833 103.772 14.8859 103.772 14.7866C103.772 14.6802 103.814 14.5561 103.994 14.3503C104.796 13.6516 105.647 13.0108 106.548 12.4433C107.571 11.7529 108.365 11.4242 109.086 11.293L110.298 11.0625C110.569 10.8 110.536 10.0682 110.142 9.91211C107.915 10.2077 104.764 10.372 102.979 10.372H102.069C101.693 10.5032 101.653 11.2268 101.995 11.5224L102.944 11.6536C103.28 11.6867 103.665 11.8179 103.665 11.9823C103.665 12.1797 103.477 12.5415 102.756 13.2898L101.167 14.9166C100.6 15.503 99.8284 15.8376 99.0229 15.8376C99.0041 15.8376 98.9841 15.8376 98.9652 15.8376C98.5566 15.8376 98.4247 15.7383 98.4247 15.3777V5.03882C98.4247 2.95921 98.4741 1.57005 98.5471 0.222266C98.3917 0.057931 98.1208 0 97.8924 0L97.8947 0Z" fill="#2B2B33"/>
</svg>
